{
    "asset" : {
        "generator" : "Khronos glTF Blender I/O v3.2.40",
        "version" : "2.0"
    },
    "scene" : 0,
    "scenes" : [
        {
            "name" : "Scene",
            "nodes" : [
                0
            ]
        }
    ],
    "nodes" : [
        {
            "mesh" : 0,
            "name" : "Plane",
            "rotation" : [
                1,
                0,
                0,
                0
            ],
            "scale" : [
                -0.18804895877838135,
                -1,
                -0.3511998653411865
            ],
            "translation" : [
                8.035696029663086,
                0,
                0
            ]
        }
    ],
    "materials" : [
        {
            "doubleSided" : true,
            "name" : "arrowTail",
            "pbrMetallicRoughness" : {
                "baseColorFactor" : [
                    0.0652807429432869,
                    0.006911605130881071,
                    0.004221559036523104,
                    1
                ],
                "metallicFactor" : 0,
                "roughnessFactor" : 0.5
            }
        },
        {
            "doubleSided" : true,
            "name" : "arrowHead",
            "pbrMetallicRoughness" : {
                "baseColorFactor" : [
                    0.007911534048616886,
                    0.0013619583332911134,
                    0.005808903370052576,
                    1
                ],
                "metallicFactor" : 0,
                "roughnessFactor" : 0.4000000059604645
            }
        },
        {
            "doubleSided" : true,
            "name" : "arrowStick",
            "pbrMetallicRoughness" : {
                "baseColorFactor" : [
                    0.15318845212459564,
                    0.08412868529558182,
                    0.010024458169937134,
                    1
                ],
                "metallicFactor" : 0,
                "roughnessFactor" : 0.5
            }
        }
    ],
    "meshes" : [
        {
            "name" : "Plane",
            "primitives" : [
                {
                    "attributes" : {
                        "POSITION" : 0,
                        "NORMAL" : 1,
                        "TEXCOORD_0" : 2
                    },
                    "indices" : 3,
                    "material" : 0
                },
                {
                    "attributes" : {
                        "POSITION" : 4,
                        "NORMAL" : 5,
                        "TEXCOORD_0" : 6
                    },
                    "indices" : 7,
                    "material" : 1
                },
                {
                    "attributes" : {
                        "POSITION" : 8,
                        "NORMAL" : 9,
                        "TEXCOORD_0" : 10
                    },
                    "indices" : 11,
                    "material" : 2
                }
            ]
        }
    ],
    "accessors" : [
        {
            "bufferView" : 0,
            "componentType" : 5126,
            "count" : 8,
            "max" : [
                1,
                0,
                0.699999988079071
            ],
            "min" : [
                -1,
                -0.10000002384185791,
                -0.699999988079071
            ],
            "type" : "VEC3"
        },
        {
            "bufferView" : 1,
            "componentType" : 5126,
            "count" : 8,
            "type" : "VEC3"
        },
        {
            "bufferView" : 2,
            "componentType" : 5126,
            "count" : 8,
            "type" : "VEC2"
        },
        {
            "bufferView" : 3,
            "componentType" : 5123,
            "count" : 12,
            "type" : "SCALAR"
        },
        {
            "bufferView" : 4,
            "componentType" : 5126,
            "count" : 38,
            "max" : [
                48.04970169067383,
                0.0470728762447834,
                2.847381591796875
            ],
            "min" : [
                37.4141731262207,
                -0.035621266812086105,
                -2.847381591796875
            ],
            "type" : "VEC3"
        },
        {
            "bufferView" : 5,
            "componentType" : 5126,
            "count" : 38,
            "type" : "VEC3"
        },
        {
            "bufferView" : 6,
            "componentType" : 5126,
            "count" : 38,
            "type" : "VEC2"
        },
        {
            "bufferView" : 7,
            "componentType" : 5123,
            "count" : 60,
            "type" : "SCALAR"
        },
        {
            "bufferView" : 8,
            "componentType" : 5126,
            "count" : 192,
            "max" : [
                41.12922668457031,
                0.03274364769458771,
                0.07999268174171448
            ],
            "min" : [
                -1.2415885925292969,
                -0.023443538695573807,
                -0.07999268919229507
            ],
            "type" : "VEC3"
        },
        {
            "bufferView" : 9,
            "componentType" : 5126,
            "count" : 192,
            "type" : "VEC3"
        },
        {
            "bufferView" : 10,
            "componentType" : 5126,
            "count" : 192,
            "type" : "VEC2"
        },
        {
            "bufferView" : 11,
            "componentType" : 5123,
            "count" : 372,
            "type" : "SCALAR"
        }
    ],
    "bufferViews" : [
        {
            "buffer" : 0,
            "byteLength" : 96,
            "byteOffset" : 0
        },
        {
            "buffer" : 0,
            "byteLength" : 96,
            "byteOffset" : 96
        },
        {
            "buffer" : 0,
            "byteLength" : 64,
            "byteOffset" : 192
        },
        {
            "buffer" : 0,
            "byteLength" : 24,
            "byteOffset" : 256
        },
        {
            "buffer" : 0,
            "byteLength" : 456,
            "byteOffset" : 280
        },
        {
            "buffer" : 0,
            "byteLength" : 456,
            "byteOffset" : 736
        },
        {
            "buffer" : 0,
            "byteLength" : 304,
            "byteOffset" : 1192
        },
        {
            "buffer" : 0,
            "byteLength" : 120,
            "byteOffset" : 1496
        },
        {
            "buffer" : 0,
            "byteLength" : 2304,
            "byteOffset" : 1616
        },
        {
            "buffer" : 0,
            "byteLength" : 2304,
            "byteOffset" : 3920
        },
        {
            "buffer" : 0,
            "byteLength" : 1536,
            "byteOffset" : 6224
        },
        {
            "buffer" : 0,
            "byteLength" : 744,
            "byteOffset" : 7760
        }
    ],
    "buffers" : [
        {
            "byteLength" : 8504,
            "uri" : "data:application/octet-stream;base64,"
        }
    ]
}
