{
    "asset" : {
        "generator" : "Khronos glTF Blender I/O v3.2.40",
        "version" : "2.0"
    },
    "scene" : 0,
    "scenes" : [
        {
            "name" : "Scene",
            "nodes" : [
                0
            ]
        }
    ],
    "nodes" : [
        {
            "mesh" : 0,
            "name" : "Cube.006",
            "scale" : [
                0.18856285512447357,
                0.4484884440898895,
                0.07140785455703735
            ],
            "translation" : [
                1.835771918296814,
                0.8426709175109863,
                0.6953895092010498
            ]
        }
    ],
    "materials" : [
        {
            "doubleSided" : true,
            "name" : "IceCream",
            "pbrMetallicRoughness" : {
                "baseColorFactor" : [
                    0.05805634334683418,
                    0.015792977064847946,
                    0,
                    1
                ],
                "metallicFactor" : 0,
                "roughnessFactor" : 0.5
            }
        },
        {
            "doubleSided" : true,
            "name" : "iceCreamStick",
            "pbrMetallicRoughness" : {
                "baseColorFactor" : [
                    1,
                    0.4182351529598236,
                    0.17234230041503906,
                    1
                ],
                "metallicFactor" : 0,
                "roughnessFactor" : 0.5
            }
        }
    ],
    "meshes" : [
        {
            "name" : "Cube",
            "primitives" : [
                {
                    "attributes" : {
                        "POSITION" : 0,
                        "NORMAL" : 1,
                        "TEXCOORD_0" : 2
                    },
                    "indices" : 3,
                    "material" : 0
                },
                {
                    "attributes" : {
                        "POSITION" : 4,
                        "NORMAL" : 5,
                        "TEXCOORD_0" : 6
                    },
                    "indices" : 7,
                    "material" : 1
                }
            ]
        }
    ],
    "accessors" : [
        {
            "bufferView" : 0,
            "componentType" : 5126,
            "count" : 3224,
            "max" : [
                0.6970565319061279,
                0.8777059316635132,
                1.7582342624664307
            ],
            "min" : [
                -1.302943468093872,
                -1.1222940683364868,
                -0.24176573753356934
            ],
            "type" : "VEC3"
        },
        {
            "bufferView" : 1,
            "componentType" : 5126,
            "count" : 3224,
            "type" : "VEC3"
        },
        {
            "bufferView" : 2,
            "componentType" : 5126,
            "count" : 3224,
            "type" : "VEC2"
        },
        {
            "bufferView" : 3,
            "componentType" : 5123,
            "count" : 4836,
            "type" : "SCALAR"
        },
        {
            "bufferView" : 4,
            "componentType" : 5126,
            "count" : 1304,
            "max" : [
                -0.13239656388759613,
                -0.912567138671875,
                1.0522801876068115
            ],
            "min" : [
                -0.5083752870559692,
                -1.849421739578247,
                0.4957716464996338
            ],
            "type" : "VEC3"
        },
        {
            "bufferView" : 5,
            "componentType" : 5126,
            "count" : 1304,
            "type" : "VEC3"
        },
        {
            "bufferView" : 6,
            "componentType" : 5126,
            "count" : 1304,
            "type" : "VEC2"
        },
        {
            "bufferView" : 7,
            "componentType" : 5123,
            "count" : 1956,
            "type" : "SCALAR"
        }
    ],
    "bufferViews" : [
        {
            "buffer" : 0,
            "byteLength" : 38688,
            "byteOffset" : 0
        },
        {
            "buffer" : 0,
            "byteLength" : 38688,
            "byteOffset" : 38688
        },
        {
            "buffer" : 0,
            "byteLength" : 25792,
            "byteOffset" : 77376
        },
        {
            "buffer" : 0,
            "byteLength" : 9672,
            "byteOffset" : 103168
        },
        {
            "buffer" : 0,
            "byteLength" : 15648,
            "byteOffset" : 112840
        },
        {
            "buffer" : 0,
            "byteLength" : 15648,
            "byteOffset" : 128488
        },
        {
            "buffer" : 0,
            "byteLength" : 10432,
            "byteOffset" : 144136
        },
        {
            "buffer" : 0,
            "byteLength" : 3912,
            "byteOffset" : 154568
        }
    ],
    "buffers" : [
        {
            "byteLength" : 158480,
            "uri" : "data:application/octet-stream;base64,"
        }
    ]
}
