{
    "asset" : {
        "generator" : "Khronos glTF Blender I/O v3.2.40",
        "version" : "2.0"
    },
    "scene" : 0,
    "scenes" : [
        {
            "name" : "Scene",
            "nodes" : [
                0
            ]
        }
    ],
    "nodes" : [
        {
            "mesh" : 0,
            "name" : "Cybertruck",
            "rotation" : [
                0.7071068286895752,
                0,
                0,
                0.7071067094802856
            ],
            "scale" : [
                0.004982112441211939,
                0.004982112441211939,
                0.004982112441211939
            ]
        }
    ],
    "materials" : [
        {
            "doubleSided" : true,
            "name" : "Bumpers",
            "pbrMetallicRoughness" : {
                "baseColorFactor" : [
                    0.023000000044703484,
                    0.023000000044703484,
                    0.023000000044703484,
                    1
                ],
                "metallicFactor" : 0.5,
                "roughnessFactor" : 0.5527864098548889
            }
        },
        {
            "doubleSided" : true,
            "name" : "BaseColor",
            "pbrMetallicRoughness" : {
                "baseColorFactor" : [
                    0.4564110040664673,
                    0.5149177312850952,
                    0.5271152257919312,
                    1
                ],
                "metallicFactor" : 0.139860138297081,
                "roughnessFactor" : 0.7861623764038086
            }
        },
        {
            "doubleSided" : true,
            "name" : "Windows",
            "pbrMetallicRoughness" : {
                "baseColorFactor" : [
                    0.010960095562040806,
                    0.013702084310352802,
                    0.0159962959587574,
                    0.9220778942108154
                ],
                "metallicFactor" : 0.5,
                "roughnessFactor" : 0.7487671971321106
            }
        },
        {
            "doubleSided" : true,
            "name" : "lambert1",
            "pbrMetallicRoughness" : {
                "baseColorFactor" : [
                    0.5,
                    0.5,
                    0.5,
                    1
                ],
                "roughnessFactor" : 0.5527864098548889
            }
        },
        {
            "doubleSided" : true,
            "name" : "Roof",
            "pbrMetallicRoughness" : {
                "baseColorFactor" : [
                    0.2723029851913452,
                    0.30929574370384216,
                    0.31700000166893005,
                    1
                ],
                "roughnessFactor" : 0.5527864098548889
            }
        },
        {
            "doubleSided" : true,
            "name" : "Taillight",
            "pbrMetallicRoughness" : {
                "baseColorFactor" : [
                    0.75,
                    0,
                    0,
                    1
                ],
                "metallicFactor" : 0,
                "roughnessFactor" : 0.6256618499755859
            }
        },
        {
            "doubleSided" : true,
            "name" : "Headlight",
            "pbrMetallicRoughness" : {
                "metallicFactor" : 0.5384615659713745,
                "roughnessFactor" : 0.5527864098548889
            }
        },
        {
            "doubleSided" : true,
            "name" : "Hoops",
            "pbrMetallicRoughness" : {
                "baseColorFactor" : [
                    0.0009103548363782465,
                    0.0024276128970086575,
                    0.003676507854834199,
                    1
                ],
                "metallicFactor" : 0.5,
                "roughnessFactor" : 0.7487671971321106
            }
        },
        {
            "doubleSided" : true,
            "name" : "Wheels",
            "pbrMetallicRoughness" : {
                "baseColorFactor" : [
                    0.01228648703545332,
                    0.015208511613309383,
                    0.017641959711909294,
                    1
                ],
                "roughnessFactor" : 0.5527864098548889
            }
        }
    ],
    "meshes" : [
        {
            "name" : "Mesh",
            "primitives" : [
                {
                    "attributes" : {
                        "POSITION" : 0,
                        "NORMAL" : 1,
                        "TEXCOORD_0" : 2
                    },
                    "indices" : 3,
                    "material" : 0
                },
                {
                    "attributes" : {
                        "POSITION" : 4,
                        "NORMAL" : 5,
                        "TEXCOORD_0" : 6
                    },
                    "indices" : 7,
                    "material" : 1
                },
                {
                    "attributes" : {
                        "POSITION" : 8,
                        "NORMAL" : 9,
                        "TEXCOORD_0" : 10
                    },
                    "indices" : 11,
                    "material" : 2
                },
                {
                    "attributes" : {
                        "POSITION" : 12,
                        "NORMAL" : 13,
                        "TEXCOORD_0" : 14
                    },
                    "indices" : 15,
                    "material" : 3
                },
                {
                    "attributes" : {
                        "POSITION" : 16,
                        "NORMAL" : 17,
                        "TEXCOORD_0" : 18
                    },
                    "indices" : 19,
                    "material" : 4
                },
                {
                    "attributes" : {
                        "POSITION" : 20,
                        "NORMAL" : 21,
                        "TEXCOORD_0" : 22
                    },
                    "indices" : 23,
                    "material" : 5
                },
                {
                    "attributes" : {
                        "POSITION" : 24,
                        "NORMAL" : 25,
                        "TEXCOORD_0" : 26
                    },
                    "indices" : 27,
                    "material" : 6
                },
                {
                    "attributes" : {
                        "POSITION" : 28,
                        "NORMAL" : 29,
                        "TEXCOORD_0" : 30
                    },
                    "indices" : 31,
                    "material" : 7
                },
                {
                    "attributes" : {
                        "POSITION" : 32,
                        "NORMAL" : 33,
                        "TEXCOORD_0" : 34
                    },
                    "indices" : 35,
                    "material" : 8
                }
            ]
        }
    ],
    "accessors" : [
        {
            "bufferView" : 0,
            "componentType" : 5126,
            "count" : 739,
            "max" : [
                162.14186096191406,
                357.8848571777344,
                163.28414916992188
            ],
            "min" : [
                -162.14186096191406,
                -489.2658386230469,
                2.793245553970337
            ],
            "type" : "VEC3"
        },
        {
            "bufferView" : 1,
            "componentType" : 5126,
            "count" : 739,
            "type" : "VEC3"
        },
        {
            "bufferView" : 2,
            "componentType" : 5126,
            "count" : 739,
            "type" : "VEC2"
        },
        {
            "bufferView" : 3,
            "componentType" : 5123,
            "count" : 1842,
            "type" : "SCALAR"
        },
        {
            "bufferView" : 4,
            "componentType" : 5126,
            "count" : 939,
            "max" : [
                155.82894897460938,
                360.3402404785156,
                137.95838928222656
            ],
            "min" : [
                -155.82894897460938,
                -489.2658386230469,
                -63.94371795654297
            ],
            "type" : "VEC3"
        },
        {
            "bufferView" : 5,
            "componentType" : 5126,
            "count" : 939,
            "type" : "VEC3"
        },
        {
            "bufferView" : 6,
            "componentType" : 5126,
            "count" : 939,
            "type" : "VEC2"
        },
        {
            "bufferView" : 7,
            "componentType" : 5123,
            "count" : 2124,
            "type" : "SCALAR"
        },
        {
            "bufferView" : 8,
            "componentType" : 5126,
            "count" : 137,
            "max" : [
                138.50900268554688,
                256.814697265625,
                25.007356643676758
            ],
            "min" : [
                -138.50900268554688,
                -183.64512634277344,
                -59.08237075805664
            ],
            "type" : "VEC3"
        },
        {
            "bufferView" : 9,
            "componentType" : 5126,
            "count" : 137,
            "type" : "VEC3"
        },
        {
            "bufferView" : 10,
            "componentType" : 5126,
            "count" : 137,
            "type" : "VEC2"
        },
        {
            "bufferView" : 11,
            "componentType" : 5123,
            "count" : 228,
            "type" : "SCALAR"
        },
        {
            "bufferView" : 12,
            "componentType" : 5126,
            "count" : 94,
            "max" : [
                162.14186096191406,
                316.25323486328125,
                153.55404663085938
            ],
            "min" : [
                -162.14186096191406,
                -239.64056396484375,
                -52.02513885498047
            ],
            "type" : "VEC3"
        },
        {
            "bufferView" : 13,
            "componentType" : 5126,
            "count" : 94,
            "type" : "VEC3"
        },
        {
            "bufferView" : 14,
            "componentType" : 5126,
            "count" : 94,
            "type" : "VEC2"
        },
        {
            "bufferView" : 15,
            "componentType" : 5123,
            "count" : 228,
            "type" : "SCALAR"
        },
        {
            "bufferView" : 16,
            "componentType" : 5126,
            "count" : 6,
            "max" : [
                136.763671875,
                -176.62796020507812,
                4.1938018798828125
            ],
            "min" : [
                -136.763671875,
                -487.0729064941406,
                -41.01423645019531
            ],
            "type" : "VEC3"
        },
        {
            "bufferView" : 17,
            "componentType" : 5126,
            "count" : 6,
            "type" : "VEC3"
        },
        {
            "bufferView" : 18,
            "componentType" : 5126,
            "count" : 6,
            "type" : "VEC2"
        },
        {
            "bufferView" : 19,
            "componentType" : 5123,
            "count" : 12,
            "type" : "SCALAR"
        },
        {
            "bufferView" : 20,
            "componentType" : 5126,
            "count" : 10,
            "max" : [
                143.9898681640625,
                -484.5598449707031,
                12.660724639892578
            ],
            "min" : [
                -143.9898681640625,
                -485.8990783691406,
                6.559123992919922
            ],
            "type" : "VEC3"
        },
        {
            "bufferView" : 21,
            "componentType" : 5126,
            "count" : 10,
            "type" : "VEC3"
        },
        {
            "bufferView" : 22,
            "componentType" : 5126,
            "count" : 10,
            "type" : "VEC2"
        },
        {
            "bufferView" : 23,
            "componentType" : 5123,
            "count" : 24,
            "type" : "SCALAR"
        },
        {
            "bufferView" : 24,
            "componentType" : 5126,
            "count" : 22,
            "max" : [
                153.6328582763672,
                354.6798095703125,
                61.653236389160156
            ],
            "min" : [
                -153.6328582763672,
                6.435039520263672,
                -63.10537338256836
            ],
            "type" : "VEC3"
        },
        {
            "bufferView" : 25,
            "componentType" : 5126,
            "count" : 22,
            "type" : "VEC3"
        },
        {
            "bufferView" : 26,
            "componentType" : 5126,
            "count" : 22,
            "type" : "VEC2"
        },
        {
            "bufferView" : 27,
            "componentType" : 5123,
            "count" : 48,
            "type" : "SCALAR"
        },
        {
            "bufferView" : 28,
            "componentType" : 5126,
            "count" : 2356,
            "max" : [
                167.44390869140625,
                295.2795104980469,
                204.2034149169922
            ],
            "min" : [
                -167.44390869140625,
                -375.02642822265625,
                90.78125762939453
            ],
            "type" : "VEC3"
        },
        {
            "bufferView" : 29,
            "componentType" : 5126,
            "count" : 2356,
            "type" : "VEC3"
        },
        {
            "bufferView" : 30,
            "componentType" : 5126,
            "count" : 2356,
            "type" : "VEC2"
        },
        {
            "bufferView" : 31,
            "componentType" : 5123,
            "count" : 5712,
            "type" : "SCALAR"
        },
        {
            "bufferView" : 32,
            "componentType" : 5126,
            "count" : 1316,
            "max" : [
                164.01107788085938,
                310.91650390625,
                217.6941680908203
            ],
            "min" : [
                -163.89840698242188,
                -388.61358642578125,
                77.37596893310547
            ],
            "type" : "VEC3"
        },
        {
            "bufferView" : 33,
            "componentType" : 5126,
            "count" : 1316,
            "type" : "VEC3"
        },
        {
            "bufferView" : 34,
            "componentType" : 5126,
            "count" : 1316,
            "type" : "VEC2"
        },
        {
            "bufferView" : 35,
            "componentType" : 5123,
            "count" : 4560,
            "type" : "SCALAR"
        }
    ],
    "bufferViews" : [
        {
            "buffer" : 0,
            "byteLength" : 8868,
            "byteOffset" : 0
        },
        {
            "buffer" : 0,
            "byteLength" : 8868,
            "byteOffset" : 8868
        },
        {
            "buffer" : 0,
            "byteLength" : 5912,
            "byteOffset" : 17736
        },
        {
            "buffer" : 0,
            "byteLength" : 3684,
            "byteOffset" : 23648
        },
        {
            "buffer" : 0,
            "byteLength" : 11268,
            "byteOffset" : 27332
        },
        {
            "buffer" : 0,
            "byteLength" : 11268,
            "byteOffset" : 38600
        },
        {
            "buffer" : 0,
            "byteLength" : 7512,
            "byteOffset" : 49868
        },
        {
            "buffer" : 0,
            "byteLength" : 4248,
            "byteOffset" : 57380
        },
        {
            "buffer" : 0,
            "byteLength" : 1644,
            "byteOffset" : 61628
        },
        {
            "buffer" : 0,
            "byteLength" : 1644,
            "byteOffset" : 63272
        },
        {
            "buffer" : 0,
            "byteLength" : 1096,
            "byteOffset" : 64916
        },
        {
            "buffer" : 0,
            "byteLength" : 456,
            "byteOffset" : 66012
        },
        {
            "buffer" : 0,
            "byteLength" : 1128,
            "byteOffset" : 66468
        },
        {
            "buffer" : 0,
            "byteLength" : 1128,
            "byteOffset" : 67596
        },
        {
            "buffer" : 0,
            "byteLength" : 752,
            "byteOffset" : 68724
        },
        {
            "buffer" : 0,
            "byteLength" : 456,
            "byteOffset" : 69476
        },
        {
            "buffer" : 0,
            "byteLength" : 72,
            "byteOffset" : 69932
        },
        {
            "buffer" : 0,
            "byteLength" : 72,
            "byteOffset" : 70004
        },
        {
            "buffer" : 0,
            "byteLength" : 48,
            "byteOffset" : 70076
        },
        {
            "buffer" : 0,
            "byteLength" : 24,
            "byteOffset" : 70124
        },
        {
            "buffer" : 0,
            "byteLength" : 120,
            "byteOffset" : 70148
        },
        {
            "buffer" : 0,
            "byteLength" : 120,
            "byteOffset" : 70268
        },
        {
            "buffer" : 0,
            "byteLength" : 80,
            "byteOffset" : 70388
        },
        {
            "buffer" : 0,
            "byteLength" : 48,
            "byteOffset" : 70468
        },
        {
            "buffer" : 0,
            "byteLength" : 264,
            "byteOffset" : 70516
        },
        {
            "buffer" : 0,
            "byteLength" : 264,
            "byteOffset" : 70780
        },
        {
            "buffer" : 0,
            "byteLength" : 176,
            "byteOffset" : 71044
        },
        {
            "buffer" : 0,
            "byteLength" : 96,
            "byteOffset" : 71220
        },
        {
            "buffer" : 0,
            "byteLength" : 28272,
            "byteOffset" : 71316
        },
        {
            "buffer" : 0,
            "byteLength" : 28272,
            "byteOffset" : 99588
        },
        {
            "buffer" : 0,
            "byteLength" : 18848,
            "byteOffset" : 127860
        },
        {
            "buffer" : 0,
            "byteLength" : 11424,
            "byteOffset" : 146708
        },
        {
            "buffer" : 0,
            "byteLength" : 15792,
            "byteOffset" : 158132
        },
        {
            "buffer" : 0,
            "byteLength" : 15792,
            "byteOffset" : 173924
        },
        {
            "buffer" : 0,
            "byteLength" : 10528,
            "byteOffset" : 189716
        },
        {
            "buffer" : 0,
            "byteLength" : 9120,
            "byteOffset" : 200244
        }
    ],
    "buffers" : [
        {
            "byteLength" : 209364,
            "uri" : "data:application/octet-stream;base64,"
        }
    ]
}
